<?xml version="1.0" encoding="iso-8859-1"?>
<!-- Generator: Adobe Illustrator 19.0.0, SVG Export Plug-In . SVG Version: 6.00 Build 0)  -->
<svg version="1.1" id="Capa_1" xmlns="http://www.w3.org/2000/svg" xmlns:xlink="http://www.w3.org/1999/xlink" x="0px" y="0px"
	 viewBox="0 0 504.242 504.242" style="enable-background:new 0 0 504.242 504.242;" xml:space="preserve">
<circle style="fill:#FDBF5E;" cx="252.897" cy="255.224" r="249.018"/>
<path style="fill:#FFFFFF;" d="M52.752,76.024c-24.048,0-42.667,19.394-42.667,42.667v50.424h86.109v-50.424
	C96.194,95.418,76.8,76.024,52.752,76.024z"/>
<path style="fill:#193651;" d="M96.194,177.648H10.085c-4.655,0-7.758-3.103-7.758-7.758v-50.424
	c0-27.927,22.497-50.424,50.424-50.424s50.424,22.497,50.424,50.424v50.424C103.952,173.77,100.073,177.648,96.194,177.648z
	 M17.842,162.133h70.594v-42.667c0-19.394-15.515-34.909-34.909-34.909s-34.909,15.515-34.909,34.909v42.667H17.842z"/>
<path style="fill:#E1E6E9;" d="M397.188,119.467c0-24.048-19.394-42.667-42.667-42.667H52.752c24.048,0,42.667,19.394,42.667,42.667
	v0.776v49.648v294.012c0,13.188,10.085,23.273,23.273,23.273h185.406l93.091-93.091V119.467z"/>
<path style="fill:#193651;" d="M304.097,494.158h-184.63c-17.067,0-31.03-13.964-31.03-31.03V120.242
	c0-20.17-15.515-35.685-34.909-35.685c-4.655,0-7.758-3.103-7.758-7.758c0-4.655,3.103-7.758,7.758-7.758h300.994
	c27.927,0,50.424,22.497,50.424,50.424v274.618c0,2.327-0.776,3.879-2.327,5.43l-93.091,93.091
	C307.976,493.382,306.424,494.158,304.097,494.158z M89.212,83.782c8.533,9.309,13.964,21.721,13.964,34.909v343.661
	c0,8.533,6.982,15.515,15.515,15.515h181.527l88.436-88.436V119.467c0-19.394-15.515-34.909-34.909-34.909H89.212V83.782z"/>
<g>
	<path style="fill:#FFFFFF;" d="M127.224,455.37V120.242c0-4.655,0-8.533-0.776-12.412h228.073c6.982,0,11.636,5.43,11.636,11.636
		v274.618l-62.061,62.061H127.224V455.37z"/>
	<path style="fill:#FFFFFF;" d="M304.097,486.4l93.091-93.091H327.37c-13.188,0-23.273,10.085-23.273,23.273V486.4z"/>
</g>
<g>
	<path style="fill:#193651;" d="M304.097,494.158c-0.776,0-2.327,0-3.103-0.776c-3.103-1.552-4.655-3.879-4.655-6.982v-69.818
		c0-17.067,13.964-31.03,31.03-31.03h69.818c3.103,0,6.206,1.552,6.982,4.655c1.552,3.103,0.776,6.206-1.552,8.533l-93.091,93.091
		C307.976,493.382,306.424,494.158,304.097,494.158z M327.37,401.842c-8.533,0-15.515,6.982-15.515,15.515v51.2l66.715-66.715
		L327.37,401.842L327.37,401.842z"/>
	<rect x="151.273" y="167.564" style="fill:#193651;" width="190.061" height="15.515"/>
</g>
<g>
	<rect x="151.273" y="167.564" style="fill:#CFD0D1;" width="190.061" height="15.515"/>
	<rect x="151.273" y="211.006" style="fill:#CFD0D1;" width="190.061" height="15.515"/>
	<rect x="151.273" y="254.448" style="fill:#CFD0D1;" width="190.061" height="15.515"/>
	<rect x="151.273" y="298.667" style="fill:#CFD0D1;" width="190.061" height="15.515"/>
	<rect x="151.273" y="342.109" style="fill:#CFD0D1;" width="190.061" height="15.515"/>
</g>
<g>
	<rect x="151.273" y="386.327" style="fill:#193651;" width="15.515" height="15.515"/>
	<rect x="182.303" y="386.327" style="fill:#193651;" width="15.515" height="15.515"/>
	<rect x="213.333" y="386.327" style="fill:#193651;" width="15.515" height="15.515"/>
	<rect x="244.364" y="386.327" style="fill:#193651;" width="15.515" height="15.515"/>
</g>
<circle style="fill:#4FBF9F;" cx="431.321" cy="245.915" r="61.285"/>
<path style="fill:#193651;" d="M431.321,315.733c-38.012,0-69.042-31.03-69.042-69.042s31.03-69.042,69.042-69.042
	s69.042,31.03,69.042,69.042S469.333,315.733,431.321,315.733z M431.321,192.388c-29.479,0-53.527,24.048-53.527,53.527
	s24.048,53.527,53.527,53.527c29.479,0,53.527-24.048,53.527-53.527C484.849,216.436,460.8,192.388,431.321,192.388z"/>
<circle style="fill:#F16051;" cx="415.806" cy="76.8" r="61.285"/>
<path style="fill:#193651;" d="M415.806,146.618c-38.012,0-69.042-31.03-69.042-69.042s31.03-69.042,69.042-69.042
	s69.042,31.03,69.042,69.042S453.818,146.618,415.806,146.618z M415.806,23.273c-29.479,0-53.527,24.048-53.527,53.527
	s24.048,53.527,53.527,53.527s53.527-24.048,53.527-53.527S445.285,23.273,415.806,23.273z"/>
<circle style="fill:#2EA2DB;" cx="224.97" cy="69.042" r="61.285"/>
<path style="fill:#193651;" d="M224.97,138.085c-38.012,0-69.042-31.03-69.042-69.042S186.958,0,224.97,0
	s69.042,31.03,69.042,69.042S263.758,138.085,224.97,138.085z M224.97,15.515c-29.479,0-53.527,24.048-53.527,53.527
	s24.048,53.527,53.527,53.527s53.527-24.048,53.527-53.527C279.273,39.564,254.449,15.515,224.97,15.515z"/>
<g>
	<path style="fill:#FFFFFF;" d="M230.4,34.909h-10.085l-22.497,51.2l-0.776,0.776h10.861l5.43-11.636h24.048l5.43,11.636h10.861
		L230.4,34.909L230.4,34.909z M233.503,65.939h-16.291l7.758-18.618L233.503,65.939z"/>
	<path style="fill:#FFFFFF;" d="M439.079,97.745c2.327-3.103,3.879-6.206,3.879-10.085c0-3.103-0.776-6.206-3.103-8.533
		c-1.552-1.552-3.879-3.103-6.206-3.879c0.776,0,0.776-0.776,2.327-1.552c2.327-2.327,3.879-5.43,3.879-9.309
		c0-3.103-1.552-6.982-3.879-9.309c-1.552-1.552-3.103-2.327-6.206-3.879c-2.327,0-5.43-0.776-8.533-0.776h-20.17V102.4h23.273
		C430.545,103.176,435.976,101.624,439.079,97.745z M410.376,72.145V60.509h10.085c3.103,0,5.43,0.776,6.206,1.552
		c1.552,0.776,1.552,2.327,1.552,4.655c0,1.552,0,5.43-8.533,5.43H410.376z M432.097,86.885c0,2.327-0.776,3.879-2.327,4.655
		c-1.552,0.776-3.879,1.552-6.982,1.552h-12.412V81.455h11.636C428.994,81.455,432.097,83.006,432.097,86.885z"/>
	<path style="fill:#FFFFFF;" d="M445.285,257.552c-2.327,2.327-4.655,3.879-6.206,4.655c-2.327,0.776-4.655,1.552-6.982,1.552
		c-4.655,0-8.533-1.552-11.636-4.655c-3.103-3.103-4.655-7.758-4.655-12.412s1.552-9.309,4.655-12.412
		c3.103-3.103,7.758-4.655,12.412-4.655c3.103,0,5.43,0.776,6.982,1.552c2.327,0.776,4.655,2.327,6.982,4.655l0.776,0.776
		l6.206-7.758l-0.776-0.776c-5.43-6.206-12.412-9.309-20.17-9.309s-14.739,2.327-20.17,7.758c-5.43,5.43-7.758,11.636-7.758,19.394
		c0,7.758,2.327,13.964,7.758,19.394c5.43,5.43,11.636,7.758,19.394,7.758c7.758,0,14.739-3.103,20.17-9.309l0.776-0.776
		L445.285,257.552L445.285,257.552z"/>
</g>
<g>
</g>
<g>
</g>
<g>
</g>
<g>
</g>
<g>
</g>
<g>
</g>
<g>
</g>
<g>
</g>
<g>
</g>
<g>
</g>
<g>
</g>
<g>
</g>
<g>
</g>
<g>
</g>
<g>
</g>
</svg>
